# xmcd
#
# Track frame offsets:
#	150
#	23265
#	33243
#	49765
#	57677
#	64090
#	82314
#	89413
#	102985
#	122652
#	134035
#	149116
#	153551
#	167487
#	172115
#	190161
#	200037
#	210118
#
# Disc length: 2950 seconds
#
# Revision: 1
# Processed by: cddbd v1.5.1PL0 Copyright (c) Steve Scherf et al.
# Submitted via: audiograbber 1.82.02
#
DISCID=0b0b8412
DTITLE=Various Artist - A Classical Christmas
DYEAR=1900
DGENRE=Christmas
TTITLE0=Canon (Pachelbel) - Academie De Saint - Onofre
TTITLE1=The Little Drummer Boy - Sabal Symphonic Ensemble
TTITLE2=Hallelujah! (From Handel's Messiah) - Academis De Saint - Onofre
TTITLE3=Bring A Torch, Jeanette, Isabella. - Croydon Musical Society
TTITLE4=Jingle Bells - Musici Di Santa Cecilia
TTITLE5=St Paul's Suite- Finale (Holst) - Croydon Musical Society
TTITLE6=Angels From The Realms Of Glory - Academie De Saint - Onofre
TTITLE7=Carol Of The Bells - The Wiltshire Players
TTITLE8=Ave Maria (Schubert) - Croydon Musical Society
TTITLE9=Skater's Waltz - The East End Players
TTITLE10=O Tannenbaum - Musici Di Santa Cecilia
TTITLE11=Shepherds, Leave Your Sheep - Sabal Symphonic Ensemble
TTITLE12=O Holy Night - Academie De Saint - Onofre
TTITLE13=Listen Lordlings Unto Me - The Wiltshire Players
TTITLE14=The Twelve Days Of Christmas - Croydon Musical Society
TTITLE15=Xmas Time - Wassail Song
TTITLE16=Largo From Winter (Vivaldi - The Four Seasons) - The East End Players
TTITLE17=We Wish You A Merry Christmas - Croydon Musical Society
EXTD=
EXTT0=
EXTT1=
EXTT2=
EXTT3=
EXTT4=
EXTT5=
EXTT6=
EXTT7=
EXTT8=
EXTT9=
EXTT10=
EXTT11=
EXTT12=
EXTT13=
EXTT14=
EXTT15=
EXTT16=
EXTT17=
PLAYORDER=
